# xmcd
#
# Track frame offsets:
# 150
# 10044
# 20889
# 36630
# 45293
# 62404
# 75946
# 89770
# 104214
# 119494
# 131762
# 142468
# 152180
# 164692
# 176936
# 191586
# 206461
# 219142
# 231393
# 253117
#
# Disc length: 3528 seconds
#
#
# Revision: 1
# Processed by: cddbd v1.5.2PL0 Copyright (c) Steve Scherf et al.
# Submitted via: FreeRIP 2.951 
#
DISCID=2f0dc614
DTITLE=Various Artist - Country Klasika
DYEAR=1900
DGENRE=Country
TTITLE0=Balad Of A Teenage Queen
TTITLE1=I Don't Wanna
TTITLE2=Cold, Cold Heart
TTITLE3=England Swings
TTITLE4=My Elusive Dreams
TTITLE5=Moonlight Gambler
TTITLE6=Fifteen Years Ago
TTITLE7=And I Love You So
TTITLE8=No Charge
TTITLE9=Everybody's Had The Blues
TTITLE10=I'm So Lonely I Could Cry
TTITLE11=From A Jack To A King
TTITLE12=One In A Milion
TTITLE13=Okie From Muskogee
TTITLE14=Do You Know What It's Like
TTITLE15=Harper Valley P.T.A.
TTITLE16=Folsom Prison Blues
TTITLE17=Already It's Heaven
TTITLE18=Big Four Poster Bed
TTITLE19=It's All In The Game
EXTD=
EXTT0=
EXTT1=
EXTT2=
EXTT3=
EXTT4=
EXTT5=
EXTT6=
EXTT7=
EXTT8=
EXTT9=
EXTT10=
EXTT11=
EXTT12=
EXTT13=
EXTT14=
EXTT15=
EXTT16=
EXTT17=
EXTT18=
EXTT19=
PLAYORDER=
